<?xml version="1.0" encoding="utf-8"?>
<!-- Generator: Adobe Illustrator 15.0.0, SVG Export Plug-In . SVG Version: 6.00 Build 0)  -->
<!DOCTYPE svg PUBLIC "-//W3C//DTD SVG 1.1//EN" "http://www.w3.org/Graphics/SVG/1.1/DTD/svg11.dtd">
<svg version="1.1" id="Layer_1" xmlns="http://www.w3.org/2000/svg" xmlns:xlink="http://www.w3.org/1999/xlink" x="0px" y="0px"
	 width="191px" height="162.611px" viewBox="0 0 191 162.611" enable-background="new 0 0 191 162.611" xml:space="preserve">
<g>
	<path fill="#FFFFFF" d="M191,0v67.111c0,52.742-42.757,95.5-95.5,95.5l0,0c-52.743,0-95.5-42.758-95.5-95.5V0H191z"/>
	<g>
		<polygon fill="#F05E54" points="102.934,99.416 102.934,54.879 114.951,54.879 114.951,75.109 129.035,54.879 143.181,54.879 
			126.723,76.6 144.611,99.416 129.461,99.416 114.951,79.43 114.951,99.416 		"/>
		<path fill="#FFC752" d="M69.951,83.02v-9.34h23.851c0.02,0.305,0.034,0.639,0.045,1.004c0.01,0.365,0.016,0.902,0.016,1.613
			c0,7.666-2.023,13.613-6.069,17.842c-4.047,4.229-9.741,6.342-17.083,6.342c-3.61,0-6.82-0.543-9.628-1.627
			c-2.809-1.084-5.319-2.742-7.53-4.973c-2.109-2.131-3.746-4.65-4.913-7.561c-1.167-2.91-1.75-5.957-1.75-9.143
			c0-3.326,0.568-6.383,1.704-9.172s2.83-5.299,5.081-7.529c2.23-2.17,4.792-3.813,7.682-4.928s6.008-1.674,9.354-1.674
			c4.361,0,8.219,0.863,11.576,2.586c3.356,1.725,6.18,4.289,8.472,7.697l-10.525,5.049c-1.258-1.723-2.672-3.006-4.245-3.848
			c-1.572-0.842-3.331-1.262-5.278-1.262c-3.63,0-6.49,1.211-8.579,3.635c-2.089,2.424-3.133,5.734-3.133,9.934
			c0,4.238,1.044,7.574,3.133,10.008c2.088,2.434,4.948,3.65,8.579,3.65c3.083,0,5.653-0.756,7.712-2.266
			c2.059-1.512,3.26-3.525,3.605-6.039H69.951z"/>
		<path fill="#3DACBB" d="M84.546,85.027c1.805,2.049,3.584,3.58,5.339,4.594c1.754,1.014,3.503,1.52,5.248,1.52
			c1.623,0,2.956-0.436,4-1.307s1.566-1.979,1.566-3.316c0-1.48-0.451-2.621-1.353-3.422c-0.903-0.801-2.947-1.629-6.13-2.48
			c-4.361-1.176-7.443-2.707-9.248-4.594c-1.806-1.887-2.708-4.471-2.708-7.756c0-4.26,1.425-7.732,4.274-10.42
			s6.545-4.031,11.088-4.031c2.455,0,4.782,0.33,6.983,0.988c2.2,0.66,4.284,1.658,6.251,2.996l-3.803,8.732
			c-1.379-1.176-2.794-2.064-4.244-2.662c-1.451-0.6-2.885-0.898-4.305-0.898c-1.46,0-2.646,0.35-3.56,1.051
			c-0.913,0.699-1.369,1.596-1.369,2.691c0,1.115,0.4,2.008,1.201,2.678c0.801,0.668,2.348,1.309,4.64,1.916l0.547,0.152
			c4.948,1.338,8.204,2.809,9.766,4.41c1.053,1.096,1.855,2.41,2.403,3.941c0.547,1.531,0.821,3.229,0.821,5.096
			c0,4.725-1.551,8.521-4.655,11.393c-3.103,2.869-7.24,4.305-12.413,4.305c-3.103,0-5.927-0.527-8.472-1.582
			s-4.995-2.707-7.347-4.959L84.546,85.027z"/>
		<path fill="#3F8840" d="M90.764,90.082c-0.293-0.143-0.586-0.291-0.879-0.461c-1.754-1.014-3.534-2.545-5.338-4.594l-5.476,9.035
			c1.432,1.371,2.901,2.516,4.405,3.443c1.603-0.912,3.043-2.035,4.318-3.367C88.951,92.928,89.937,91.572,90.764,90.082"/>
		<path fill="#3F8840" d="M81.275,68.707l9.483-4.549c-1.609-2.393-3.485-4.359-5.619-5.922c-2.585,2.631-3.88,5.973-3.88,10.029
			C81.26,68.416,81.271,68.559,81.275,68.707"/>
		<path fill="#3F8840" d="M93.847,74.684c-0.011-0.365-0.026-0.699-0.045-1.004H82.357c0.418,0.873,0.953,1.654,1.61,2.342
			c1.804,1.887,4.888,3.418,9.248,4.594c0.138,0.037,0.262,0.074,0.395,0.111c0.165-1.408,0.251-2.883,0.251-4.43
			C93.862,75.586,93.857,75.049,93.847,74.684"/>
		<path fill="#3E403C" d="M108.73,75.869c-1.096-1.123-3.031-2.184-5.797-3.178v26.42c1.631-0.693,3.088-1.629,4.368-2.813
			c3.103-2.871,4.654-6.668,4.654-11.393c0-1.867-0.274-3.564-0.821-5.098C110.587,78.277,109.785,76.965,108.73,75.869"/>
		<path fill="#3E403C" d="M102.934,64.396c1.059,0.553,2.1,1.264,3.12,2.135l3.803-8.732c-1.896-1.289-3.902-2.262-6.014-2.92
			h-0.909V64.396z"/>
	</g>
</g>
</svg>
